<svg xmlns="http://www.w3.org/2000/svg" version="1.1" xmlns:xlink="http://www.w3.org/1999/xlink" xmlns:svgjs="http://svgjs.dev/svgjs" width="720" height="415" preserveAspectRatio="none" viewBox="0 0 720 415"><g mask="url(&quot;#SvgjsMask1107&quot;)" fill="none"><rect width="720" height="415" x="0" y="0" fill="rgba(255, 209, 128, 1)"></rect><path d="M732 415L0 415 L0 240.09Q33.39 213.48, 60 246.87Q95.52 246.39, 96 281.92Q131.25 257.18, 156 292.43Q157.08 233.51, 216 234.6Q225.92 208.52, 252 218.44Q273.06 203.5, 288 224.56Q318.94 219.5, 324 250.43Q351.23 241.66, 360 268.89Q397 245.89, 420 282.9Q432.67 235.57, 480 248.24Q479.8 212.04, 516 211.83Q568.62 228.45, 552 281.07Q591.75 260.82, 612 300.58Q621.75 250.33, 672 260.08Q690.41 218.49, 732 236.9z" fill="rgba(229, 101, 15, 1)"></path><path d="M780 415L0 415 L0 339.04Q33.94 336.99, 36 370.93Q58.97 333.9, 96 356.87Q102.51 303.38, 156 309.9Q163.24 281.14, 192 288.38Q222.36 258.74, 252 289.09Q295.22 272.31, 312 315.53Q321.92 289.45, 348 299.37Q369.38 260.75, 408 282.12Q455.89 270.01, 468 317.9Q517.52 307.42, 528 356.95Q551.11 320.06, 588 343.16Q597.77 316.94, 624 326.71Q639.94 282.65, 684 298.6Q708.79 287.39, 720 312.18Q769.37 301.55, 780 350.92z" fill="rgba(255, 116, 18, 1)"></path><path d="M732 415L0 415 L0 350.64Q51.3 341.94, 60 393.23Q99.62 372.85, 120 412.47Q149.81 406.29, 156 436.1Q156.53 376.63, 216 377.16Q227.4 352.56, 252 363.96Q307.21 383.17, 288 438.39Q287.88 378.26, 348 378.14Q359.44 353.57, 384 365.01Q435.48 380.49, 420 431.97Q395.9 371.88, 456 347.78Q513 344.77, 516 401.77Q553.51 379.28, 576 416.8Q604.15 408.96, 612 437.11Q616.22 381.33, 672 385.55Q688.5 342.05, 732 358.55z" fill="rgba(255, 255, 255, 1)"></path></g><defs><mask id="SvgjsMask1107"><rect width="720" height="415" fill="#ffffff"></rect></mask></defs></svg>