<svg xmlns="http://www.w3.org/2000/svg" version="1.1" xmlns:xlink="http://www.w3.org/1999/xlink" xmlns:svgjs="http://svgjs.dev/svgjs" width="1440" height="560" preserveAspectRatio="none" viewBox="0 0 1440 560"><g mask="url(&quot;#SvgjsMask1074&quot;)" fill="none"><rect width="1440" height="560" x="0" y="0" fill="rgba(255, 209, 128, 1)"></rect><path d="M1512 560L0 560 L0 332.34Q14.69 275.03, 72 289.72Q139.78 237.5, 192 305.28Q284.65 277.93, 312 370.58Q351.94 290.52, 432 330.46Q498.79 277.25, 552 344.04Q586.48 258.52, 672 293.01Q739.53 240.54, 792 308.08Q870.65 266.73, 912 345.38Q960.2 273.58, 1032 321.78Q1114.36 284.13, 1152 366.49Q1177.96 272.45, 1272 298.41Q1340.89 247.3, 1392 316.19Q1457.82 262, 1512 327.82z" fill="rgba(229, 101, 15, 1)"></path><path d="M1464 560L0 560 L0 430.35Q63.86 374.21, 120 438.07Q140.22 338.29, 240 358.51Q312.91 311.42, 360 384.34Q424.17 376.5, 432 440.67Q461.83 398.5, 504 428.33Q544.51 348.84, 624 389.35Q667.4 360.75, 696 404.15Q736.5 324.65, 816 365.15Q845.51 322.66, 888 352.17Q943.86 336.03, 960 391.89Q1038.4 350.29, 1080 428.69Q1149.31 378, 1200 447.3Q1201.01 376.31, 1272 377.31Q1294.94 328.25, 1344 351.2Q1422.71 309.91, 1464 388.63z" fill="rgba(255, 116, 18, 1)"></path><path d="M1512 560L0 560 L0 467.63Q53.35 400.98, 120 454.32Q169.68 432, 192 481.68Q208.91 426.59, 264 443.5Q318.34 377.84, 384 432.18Q436.6 412.78, 456 465.38Q522.98 412.36, 576 479.33Q630.33 461.66, 648 515.99Q697.13 445.12, 768 494.24Q769.41 423.65, 840 425.06Q879.31 392.37, 912 431.67Q967.66 415.33, 984 470.99Q1042.59 457.57, 1056 516.16Q1107.03 447.19, 1176 498.22Q1175.13 425.35, 1248 424.47Q1294.44 398.92, 1320 445.36Q1398.81 404.17, 1440 482.98Q1466.69 437.67, 1512 464.36z" fill="rgba(255, 209, 128, 1)"></path><path d="M1536 560L0 560 L0 504.92Q30.31 463.24, 72 493.55Q120.26 469.81, 144 518.07Q192.38 494.46, 216 542.84Q268.41 523.25, 288 575.66Q306.95 474.61, 408 493.56Q481.24 446.8, 528 520.05Q617.65 489.7, 648 579.35Q697.85 509.2, 768 559.05Q794.79 513.84, 840 540.63Q922.66 503.29, 960 585.95Q960.57 514.52, 1032 515.09Q1059.69 470.79, 1104 498.48Q1204.94 479.42, 1224 580.37Q1231.31 515.67, 1296 522.98Q1363.37 470.35, 1416 537.72Q1462.94 464.66, 1536 511.6z" fill="white"></path></g><defs><mask id="SvgjsMask1074"><rect width="1440" height="560" fill="#ffffff"></rect></mask></defs></svg>